<svg width="36" height="36" viewBox="0 0 36 36" fill="none" xmlns="http://www.w3.org/2000/svg">
<path d="M21.4432 9.79395L14.2903 16.9473C14.1807 16.9473 12.5613 16.945 11.0758 16.9458L18.2273 9.79409H21.4432V9.79395Z" fill="#2563EA"/>
<path d="M21.9986 10.4023L20.3907 12.0104L25.3266 16.9462C25.4359 16.9462 27.0555 16.944 28.541 16.9448L21.9986 10.4023Z" fill="#2563EA"/>
<path d="M28.0528 26.4276V28.6546C28.0528 29.2886 27.5393 29.803 26.9044 29.803H13.6884C10.4783 29.803 7.87561 27.2003 7.87561 23.9902V20.073C7.87561 20.0564 7.82825 20.019 7.83829 19.9601L7.98208 19.7481L18.0005 9.7331V2.94727H4.35742V24.9592C4.35742 29.5587 8.12009 33.3215 12.7197 33.3215H30.0034C30.8303 33.3215 31.5 32.6508 31.5 31.8241V26.4276H28.0531H28.0528Z" fill="#2563EA"/>
<path d="M21.4666 16.8535C21.1907 16.6803 20.8996 16.5407 20.6096 16.4447C20.3688 16.3647 20.1291 16.315 19.8994 16.3001C18.2993 16.1963 16.491 17.426 16.2708 19.067V26.571C16.3234 26.5899 16.3566 26.499 16.3782 26.499H22.9129C22.9242 26.499 23.0924 26.6229 23.0924 26.4633V19.2826C23.0924 18.3329 22.3613 17.4155 21.4667 16.8536L21.4666 16.8535Z" fill="url(#paint0_linear_83_16)"/>
<defs>
<linearGradient id="paint0_linear_83_16" x1="16.2708" y1="21.4337" x2="23.0924" y2="21.4337" gradientUnits="userSpaceOnUse">
<stop stop-color="#2563EA"/>
<stop offset="1" stop-color="#50E6AF"/>
</linearGradient>
</defs>
</svg>
