<svg width="175" height="36" viewBox="0 0 175 36" fill="none" xmlns="http://www.w3.org/2000/svg">
<path d="M20.3223 8.55921L12.4975 16.384C12.3774 16.384 10.6059 16.3815 8.98145 16.3821L16.8044 8.55859H20.3223V8.55921Z" fill="white"/>
<path d="M20.9298 9.22559L19.1711 10.9849L24.5703 16.384C24.6898 16.384 26.462 16.3816 28.0864 16.3822L20.9298 9.22559Z" fill="white"/>
<path d="M27.5524 26.7552V29.1912C27.5524 29.8845 26.9909 30.4473 26.2964 30.4473H11.8391C8.32735 30.4473 5.48065 27.5999 5.48065 24.0888V19.8034C5.48065 19.785 5.42854 19.7445 5.43958 19.6796L5.59711 19.4479L16.5561 8.49259V1.06934H1.63171V25.148C1.63171 30.1794 5.74791 34.2956 10.7793 34.2956H29.6862C30.591 34.2956 31.3235 33.5618 31.3235 32.6577V26.7546H27.553L27.5524 26.7552Z" fill="white"/>
<path d="M20.3474 16.2826C20.0458 16.0932 19.7271 15.9405 19.4102 15.8357C19.1466 15.7481 18.8848 15.6941 18.6335 15.6776C16.8834 15.5642 14.9053 16.9091 14.6638 18.7045V26.913C14.7214 26.9338 14.7576 26.8345 14.7815 26.8345H21.9301C21.9424 26.8345 22.1263 26.97 22.1263 26.7953V18.9405C22.1263 17.9015 21.3264 16.898 20.348 16.2832L20.3474 16.2826Z" fill="url(#paint0_linear_83_38)"/>
<path d="M50.0025 20.6225C50.0754 21.6002 50.019 22.5914 50.019 23.5673C50.019 26.4857 50.187 28.3106 48.6502 30.6608C47.2618 32.7842 44.8056 34.2958 41.8712 34.2958H40.4215C37.5258 34.2958 35.053 32.8148 33.6431 30.6608C32.0812 28.4013 32.2755 26.4637 32.2755 24.298V20.9155C32.2755 17.0053 35.7579 13.0693 40.4227 13.0693H41.8724C45.9445 13.0693 49.6708 16.1808 50.0031 20.6225H50.0025ZM46.0383 20.5913C45.8832 19.5731 45.4216 18.7407 44.6278 18.0462C43.8131 17.3339 42.4793 16.982 41.1467 16.9832C39.814 16.982 38.4808 17.3339 37.6655 18.0462C36.8717 18.7407 36.4101 19.5731 36.255 20.5913C36.2011 20.9168 36.1839 26.3429 36.2538 26.7634C36.4101 27.8049 36.8705 28.6398 37.6637 29.3263C38.4544 30.0122 39.3561 30.3457 40.4215 30.3457H41.8712C42.9366 30.3457 43.8383 30.0122 44.6296 29.3263C45.4222 28.6398 45.8826 27.8049 46.0395 26.7634C46.11 26.3429 46.0922 20.9168 46.0383 20.5913Z" fill="white"/>
<path d="M51.8108 25.9398C51.8089 21.5331 51.2205 18.3437 54.4576 15.3407C57.5937 12.4321 62.4963 12.4125 65.644 15.4468C67.2016 16.9492 68.0561 18.7955 68.1818 20.9354L68.183 20.9728C68.2002 23.616 68.2026 31.0718 68.2026 33.699H64.2335V26.3892H55.7823V33.6984H51.8132C51.8132 31.1563 51.8132 29.2316 51.8114 25.9398H51.8108ZM64.2335 22.4195C64.2335 21.2425 64.4058 19.7039 62.869 18.2616C61.2728 16.7628 58.8509 16.7445 57.2437 18.1611C55.5996 19.6095 55.7811 21.2217 55.7811 22.4195H64.2329H64.2335Z" fill="white"/>
<path d="M70.2009 33.6495C70.2009 31.143 70.2028 23.3624 70.2199 20.9135V20.8816C70.3315 18.7595 71.1719 16.9316 72.7172 15.4487C75.8324 12.4586 80.656 12.4715 83.7516 15.3556C85.4587 16.9469 86.3617 18.9961 86.3617 21.2813V33.6501H82.4478V23.0363C82.4704 21.1685 82.6844 19.6152 81.0091 18.1397C79.4208 16.7428 77.0192 16.7722 75.4438 18.2409C74.6432 18.9875 74.2141 19.872 74.1326 20.9448V33.6501H70.2003L70.2009 33.6495Z" fill="white"/>
<path d="M97.3586 33.6959H88.4305V29.7685H97.198C100.634 29.7685 100.536 24.6207 97.198 24.6207C96.2087 24.6207 94.4071 24.6213 93.4208 24.6268C90.3651 24.6268 88.2221 22.363 87.915 19.8798C87.4859 16.4925 90.1383 13.6973 93.3399 13.6973H102.285V17.6302C102.191 17.6302 93.3258 17.6302 93.2326 17.6375V17.6406C91.3943 17.7663 91.3397 20.5541 93.2326 20.6828V20.6859C93.3889 20.6969 96.5752 20.6926 97.1992 20.692C98.983 20.692 100.528 21.3363 101.79 22.6052C105.874 26.714 102.935 33.6334 97.3598 33.6947L97.3586 33.6959Z" fill="white"/>
<path d="M112.973 33.6976C111.148 33.6976 109.352 33.0846 107.92 31.9525C106.521 30.8479 105.508 29.2872 105.07 27.5592C104.676 26.004 104.826 24.3441 104.826 22.754C104.826 21.1639 104.813 19.2336 106.306 17.1151C107.329 15.6624 108.827 14.57 110.523 14.0404C111.315 13.7934 112.144 13.6689 112.973 13.6689H119.876V17.6184H112.973C110.806 17.6184 109.109 19.2011 108.806 21.1909C108.731 21.6408 108.753 25.8557 108.804 26.1653C109.114 28.2261 110.838 29.7475 112.973 29.7475H119.876V33.6976H112.973Z" fill="white"/>
<path d="M121.306 25.9398C121.304 21.5331 120.715 18.3437 123.952 15.3407C127.088 12.4321 131.991 12.4125 135.139 15.4468C136.696 16.9492 137.551 18.7955 137.677 20.9354L137.678 20.9728C137.695 23.616 137.697 31.0718 137.697 33.699H133.728V26.3892H125.277V33.6984H121.308C121.308 31.1563 121.308 29.2316 121.306 25.9398H121.306ZM133.728 22.4195C133.728 21.2425 133.901 19.7039 132.364 18.2616C130.768 16.7628 128.346 16.7445 126.738 18.1611C125.094 19.6095 125.276 21.2217 125.276 22.4195H133.728H133.728Z" fill="white"/>
<path d="M156.255 20.2458C156.255 23.8459 153.352 26.7753 149.784 26.7753H143.911V33.6689H139.942L139.962 13.6973H149.726C153.345 13.6973 156.255 16.6163 156.255 20.2458ZM149.649 17.6473H143.911V22.8246H149.725C153.115 22.8246 153.184 17.6473 149.649 17.6473Z" fill="white"/>
<path d="M172.7 33.6973H166.071C164.211 33.6973 162.322 33.2902 160.744 32.2727C159.425 31.4219 158.397 30.1763 157.801 28.7247C157.126 27.0782 157.184 25.3766 157.184 23.6406C157.184 21.8188 156.994 20.0657 158.12 17.9576C158.886 16.5226 160.103 15.3721 161.558 14.6506C162.955 13.9579 164.52 13.668 166.071 13.668H172.7V17.6174H166.071C162.822 17.6174 161.161 19.4858 161.115 21.7238H171.291V25.6408H161.116C161.166 27.8874 162.796 29.7472 166.071 29.7472H172.699V33.6973H172.7Z" fill="white"/>
<defs>
<linearGradient id="paint0_linear_83_38" x1="14.6638" y1="21.2931" x2="22.1257" y2="21.2931" gradientUnits="userSpaceOnUse">
<stop stop-color="white"/>
<stop offset="1" stop-color="white"/>
</linearGradient>
</defs>
</svg>
