<svg width="260" height="36" viewBox="0 0 260 36" fill="none" xmlns="http://www.w3.org/2000/svg">
<path d="M42.9545 12.196V9.54545H56.8807V12.196H51.4858V27H48.3494V12.196H42.9545ZM58.0696 27V13.9091H61.0611V16.0909H61.1974C61.4361 15.3352 61.8452 14.7528 62.4247 14.3438C63.0099 13.929 63.6776 13.7216 64.4276 13.7216C64.598 13.7216 64.7884 13.7301 64.9986 13.7472C65.2145 13.7585 65.3935 13.7784 65.5355 13.8068V16.6449C65.4048 16.5994 65.1974 16.5597 64.9134 16.5256C64.6349 16.4858 64.3651 16.4659 64.1037 16.4659C63.5412 16.4659 63.0355 16.5881 62.5866 16.8324C62.1435 17.071 61.794 17.4034 61.5384 17.8295C61.2827 18.2557 61.1548 18.7472 61.1548 19.304V27H58.0696ZM67.5852 27V13.9091H70.6705V27H67.5852ZM69.1364 12.0511C68.6477 12.0511 68.2273 11.8892 67.875 11.5653C67.5227 11.2358 67.3466 10.8409 67.3466 10.3807C67.3466 9.91477 67.5227 9.51989 67.875 9.19602C68.2273 8.86648 68.6477 8.7017 69.1364 8.7017C69.6307 8.7017 70.0511 8.86648 70.3977 9.19602C70.75 9.51989 70.9261 9.91477 70.9261 10.3807C70.9261 10.8409 70.75 11.2358 70.3977 11.5653C70.0511 11.8892 69.6307 12.0511 69.1364 12.0511ZM79.5533 27.2557C78.2749 27.2557 77.1669 26.9744 76.2294 26.4119C75.2919 25.8494 74.5646 25.0625 74.0476 24.0511C73.5362 23.0398 73.2805 21.858 73.2805 20.5057C73.2805 19.1534 73.5362 17.9687 74.0476 16.9517C74.5646 15.9347 75.2919 15.1449 76.2294 14.5824C77.1669 14.0199 78.2749 13.7386 79.5533 13.7386C80.8317 13.7386 81.9396 14.0199 82.8771 14.5824C83.8146 15.1449 84.5391 15.9347 85.0504 16.9517C85.5675 17.9687 85.826 19.1534 85.826 20.5057C85.826 21.858 85.5675 23.0398 85.0504 24.0511C84.5391 25.0625 83.8146 25.8494 82.8771 26.4119C81.9396 26.9744 80.8317 27.2557 79.5533 27.2557ZM79.5703 24.7841C80.2635 24.7841 80.843 24.5937 81.3089 24.2131C81.7749 23.8267 82.1214 23.3097 82.3487 22.6619C82.5817 22.0142 82.6982 21.2926 82.6982 20.4972C82.6982 19.696 82.5817 18.9716 82.3487 18.3239C82.1214 17.6705 81.7749 17.1506 81.3089 16.7642C80.843 16.3778 80.2635 16.1847 79.5703 16.1847C78.8601 16.1847 78.2692 16.3778 77.7976 16.7642C77.3317 17.1506 76.9822 17.6705 76.7493 18.3239C76.522 18.9716 76.4084 19.696 76.4084 20.4972C76.4084 21.2926 76.522 22.0142 76.7493 22.6619C76.9822 23.3097 77.3317 23.8267 77.7976 24.2131C78.2692 24.5937 78.8601 24.7841 79.5703 24.7841ZM88.581 27V9.54545H99.9332V12.196H91.7429V16.9347H99.3452V19.5852H91.7429V24.3494H100.001V27H88.581ZM107.881 27.2301C106.852 27.2301 105.932 26.9659 105.119 26.4375C104.307 25.9091 103.665 25.142 103.193 24.1364C102.722 23.1307 102.486 21.9091 102.486 20.4716C102.486 19.017 102.724 17.7898 103.202 16.7898C103.685 15.7841 104.335 15.0256 105.153 14.5142C105.972 13.9972 106.884 13.7386 107.889 13.7386C108.656 13.7386 109.287 13.8693 109.781 14.1307C110.276 14.3864 110.668 14.696 110.957 15.0597C111.247 15.4176 111.472 15.7557 111.631 16.0739H111.759V9.54545H114.852V27H111.818V24.9375H111.631C111.472 25.2557 111.241 25.5937 110.94 25.9517C110.639 26.304 110.241 26.6051 109.747 26.8551C109.253 27.1051 108.631 27.2301 107.881 27.2301ZM108.741 24.6989C109.395 24.6989 109.952 24.5227 110.412 24.1705C110.872 23.8125 111.222 23.3153 111.46 22.679C111.699 22.0426 111.818 21.3011 111.818 20.4545C111.818 19.608 111.699 18.8722 111.46 18.2472C111.227 17.6222 110.881 17.1364 110.42 16.7898C109.966 16.4432 109.406 16.2699 108.741 16.2699C108.054 16.2699 107.48 16.4489 107.02 16.8068C106.56 17.1648 106.213 17.6591 105.98 18.2898C105.747 18.9205 105.631 19.642 105.631 20.4545C105.631 21.2727 105.747 22.0028 105.98 22.6449C106.219 23.2812 106.568 23.7841 107.028 24.1534C107.494 24.517 108.065 24.6989 108.741 24.6989ZM126.484 21.4943V13.9091H129.569V27H126.577V24.6733H126.441C126.146 25.4062 125.66 26.0057 124.984 26.4716C124.313 26.9375 123.487 27.1705 122.504 27.1705C121.646 27.1705 120.887 26.9801 120.228 26.5994C119.575 26.2131 119.063 25.6534 118.694 24.9205C118.325 24.1818 118.14 23.2898 118.14 22.2443V13.9091H121.225V21.767C121.225 22.5966 121.452 23.2557 121.907 23.7443C122.362 24.233 122.958 24.4773 123.697 24.4773C124.151 24.4773 124.592 24.3665 125.018 24.1449C125.444 23.9233 125.793 23.5938 126.066 23.1562C126.344 22.7131 126.484 22.1591 126.484 21.4943ZM147.818 15.4347H144.631C144.54 14.9119 144.372 14.4489 144.128 14.0455C143.884 13.6364 143.58 13.2898 143.216 13.0057C142.852 12.7216 142.438 12.5085 141.972 12.3665C141.511 12.2188 141.014 12.1449 140.48 12.1449C139.531 12.1449 138.69 12.3835 137.957 12.8608C137.224 13.3324 136.651 14.0256 136.236 14.9403C135.821 15.8494 135.614 16.9602 135.614 18.2727C135.614 19.608 135.821 20.733 136.236 21.6477C136.656 22.5568 137.23 23.2443 137.957 23.7102C138.69 24.1705 139.528 24.4006 140.472 24.4006C140.994 24.4006 141.483 24.3324 141.938 24.196C142.398 24.054 142.81 23.8466 143.173 23.5739C143.543 23.3011 143.852 22.9659 144.102 22.5682C144.358 22.1705 144.534 21.7159 144.631 21.2045L147.818 21.2216C147.699 22.0511 147.44 22.8295 147.043 23.5568C146.651 24.2841 146.136 24.9261 145.5 25.483C144.864 26.0341 144.119 26.4659 143.267 26.7784C142.415 27.0852 141.469 27.2386 140.429 27.2386C138.895 27.2386 137.526 26.8835 136.321 26.1733C135.116 25.4631 134.168 24.4375 133.474 23.0966C132.781 21.7557 132.435 20.1477 132.435 18.2727C132.435 16.392 132.784 14.7841 133.483 13.4489C134.182 12.108 135.134 11.0824 136.338 10.3722C137.543 9.66193 138.906 9.30682 140.429 9.30682C141.401 9.30682 142.304 9.44318 143.139 9.71591C143.974 9.98864 144.719 10.3892 145.372 10.9176C146.026 11.4403 146.563 12.0824 146.983 12.8438C147.409 13.5994 147.688 14.4631 147.818 15.4347ZM156.288 27.2557C155.009 27.2557 153.901 26.9744 152.964 26.4119C152.026 25.8494 151.299 25.0625 150.782 24.0511C150.271 23.0398 150.015 21.858 150.015 20.5057C150.015 19.1534 150.271 17.9687 150.782 16.9517C151.299 15.9347 152.026 15.1449 152.964 14.5824C153.901 14.0199 155.009 13.7386 156.288 13.7386C157.566 13.7386 158.674 14.0199 159.612 14.5824C160.549 15.1449 161.273 15.9347 161.785 16.9517C162.302 17.9687 162.56 19.1534 162.56 20.5057C162.56 21.858 162.302 23.0398 161.785 24.0511C161.273 25.0625 160.549 25.8494 159.612 26.4119C158.674 26.9744 157.566 27.2557 156.288 27.2557ZM156.305 24.7841C156.998 24.7841 157.577 24.5937 158.043 24.2131C158.509 23.8267 158.856 23.3097 159.083 22.6619C159.316 22.0142 159.433 21.2926 159.433 20.4972C159.433 19.696 159.316 18.9716 159.083 18.3239C158.856 17.6705 158.509 17.1506 158.043 16.7642C157.577 16.3778 156.998 16.1847 156.305 16.1847C155.594 16.1847 155.004 16.3778 154.532 16.7642C154.066 17.1506 153.717 17.6705 153.484 18.3239C153.256 18.9716 153.143 19.696 153.143 20.4972C153.143 21.2926 153.256 22.0142 153.484 22.6619C153.717 23.3097 154.066 23.8267 154.532 24.2131C155.004 24.5937 155.594 24.7841 156.305 24.7841ZM168.264 19.3295V27H165.179V13.9091H168.128V16.1335H168.281C168.582 15.4006 169.063 14.8182 169.722 14.3864C170.386 13.9545 171.207 13.7386 172.185 13.7386C173.088 13.7386 173.875 13.9318 174.545 14.3182C175.222 14.7045 175.744 15.2642 176.114 15.9972C176.489 16.7301 176.673 17.6193 176.668 18.6648V27H173.582V19.142C173.582 18.267 173.355 17.5824 172.901 17.0881C172.452 16.5937 171.83 16.3466 171.034 16.3466C170.494 16.3466 170.014 16.4659 169.594 16.7045C169.179 16.9375 168.852 17.2756 168.614 17.7188C168.381 18.1619 168.264 18.6989 168.264 19.3295ZM182.889 19.3295V27H179.804V13.9091H182.753V16.1335H182.906C183.207 15.4006 183.688 14.8182 184.347 14.3864C185.011 13.9545 185.832 13.7386 186.81 13.7386C187.713 13.7386 188.5 13.9318 189.17 14.3182C189.847 14.7045 190.369 15.2642 190.739 15.9972C191.114 16.7301 191.298 17.6193 191.293 18.6648V27H188.207V19.142C188.207 18.267 187.98 17.5824 187.526 17.0881C187.077 16.5937 186.455 16.3466 185.659 16.3466C185.119 16.3466 184.639 16.4659 184.219 16.7045C183.804 16.9375 183.477 17.2756 183.239 17.7188C183.006 18.1619 182.889 18.6989 182.889 19.3295ZM200.224 27.2557C198.912 27.2557 197.778 26.983 196.824 26.4375C195.875 25.8864 195.145 25.108 194.634 24.1023C194.122 23.0909 193.866 21.9006 193.866 20.5312C193.866 19.1847 194.122 18.0028 194.634 16.9858C195.151 15.9631 195.872 15.1676 196.798 14.5994C197.724 14.0256 198.812 13.7386 200.062 13.7386C200.869 13.7386 201.631 13.8693 202.347 14.1307C203.068 14.3864 203.705 14.7841 204.256 15.3239C204.813 15.8636 205.25 16.5511 205.568 17.3864C205.886 18.2159 206.045 19.2045 206.045 20.3523V21.2983H195.315V19.2188H203.088C203.082 18.6278 202.955 18.1023 202.705 17.642C202.455 17.1761 202.105 16.8097 201.656 16.5426C201.213 16.2756 200.696 16.142 200.105 16.142C199.474 16.142 198.92 16.2955 198.443 16.6023C197.966 16.9034 197.594 17.3011 197.327 17.7955C197.065 18.2841 196.932 18.821 196.926 19.4062V21.2216C196.926 21.983 197.065 22.6364 197.344 23.1818C197.622 23.7216 198.011 24.1364 198.511 24.4261C199.011 24.7102 199.597 24.8523 200.267 24.8523C200.716 24.8523 201.122 24.7898 201.486 24.6648C201.849 24.5341 202.165 24.3438 202.432 24.0938C202.699 23.8438 202.901 23.5341 203.037 23.1648L205.918 23.4886C205.736 24.25 205.389 24.9148 204.878 25.483C204.372 26.0455 203.724 26.483 202.935 26.7955C202.145 27.1023 201.241 27.2557 200.224 27.2557ZM214.366 27.2557C213.059 27.2557 211.937 26.9688 210.999 26.3949C210.067 25.821 209.349 25.0284 208.843 24.017C208.343 23 208.093 21.8295 208.093 20.5057C208.093 19.1761 208.349 18.0028 208.86 16.9858C209.371 15.9631 210.093 15.1676 211.025 14.5994C211.962 14.0256 213.07 13.7386 214.349 13.7386C215.411 13.7386 216.352 13.9347 217.17 14.3267C217.994 14.7131 218.65 15.2614 219.138 15.9716C219.627 16.6761 219.906 17.5 219.974 18.4432H217.025C216.906 17.8125 216.621 17.2869 216.173 16.8665C215.729 16.4403 215.136 16.2273 214.391 16.2273C213.761 16.2273 213.207 16.3977 212.729 16.7386C212.252 17.0739 211.88 17.5568 211.613 18.1875C211.352 18.8182 211.221 19.5739 211.221 20.4545C211.221 21.3466 211.352 22.1136 211.613 22.7557C211.874 23.392 212.241 23.8835 212.712 24.2301C213.19 24.571 213.749 24.7415 214.391 24.7415C214.846 24.7415 215.252 24.6562 215.61 24.4858C215.974 24.3097 216.278 24.0568 216.522 23.7273C216.766 23.3977 216.934 22.9972 217.025 22.5256H219.974C219.9 23.4517 219.627 24.2727 219.156 24.9886C218.684 25.6989 218.042 26.2557 217.229 26.6591C216.417 27.0568 215.462 27.2557 214.366 27.2557ZM229.044 13.9091V16.2955H221.518V13.9091H229.044ZM223.376 10.7727H226.462V23.0625C226.462 23.4773 226.524 23.7955 226.649 24.017C226.78 24.233 226.95 24.3807 227.161 24.4602C227.371 24.5398 227.604 24.5795 227.859 24.5795C228.053 24.5795 228.229 24.5653 228.388 24.5369C228.553 24.5085 228.678 24.483 228.763 24.4602L229.283 26.8722C229.118 26.929 228.882 26.9915 228.575 27.0597C228.274 27.1278 227.905 27.1676 227.467 27.179C226.695 27.2017 225.999 27.0852 225.379 26.8295C224.76 26.5682 224.268 26.1648 223.905 25.6193C223.547 25.0739 223.371 24.392 223.376 23.5739V10.7727Z" fill="#F6F6F6"/>
<rect width="36" height="36" rx="6" fill="#F6F6F6"/>
<path d="M24 8H12C10.8954 8 10 8.89543 10 10V26C10 27.1046 10.8954 28 12 28H24C25.1046 28 26 27.1046 26 26V10C26 8.89543 25.1046 8 24 8Z" stroke="#141414" stroke-width="2" stroke-linecap="round" stroke-linejoin="round"/>
<path d="M15 28V24H21V28" stroke="#141414" stroke-width="2" stroke-linecap="round" stroke-linejoin="round"/>
<path d="M14 12H14.01" stroke="#141414" stroke-width="2" stroke-linecap="round" stroke-linejoin="round"/>
<path d="M22 12H22.01" stroke="#141414" stroke-width="2" stroke-linecap="round" stroke-linejoin="round"/>
<path d="M18 12H18.01" stroke="#141414" stroke-width="2" stroke-linecap="round" stroke-linejoin="round"/>
<path d="M18 16H18.01" stroke="#141414" stroke-width="2" stroke-linecap="round" stroke-linejoin="round"/>
<path d="M18 20H18.01" stroke="#141414" stroke-width="2" stroke-linecap="round" stroke-linejoin="round"/>
<path d="M22 16H22.01" stroke="#141414" stroke-width="2" stroke-linecap="round" stroke-linejoin="round"/>
<path d="M22 20H22.01" stroke="#141414" stroke-width="2" stroke-linecap="round" stroke-linejoin="round"/>
<path d="M14 16H14.01" stroke="#141414" stroke-width="2" stroke-linecap="round" stroke-linejoin="round"/>
<path d="M14 20H14.01" stroke="#141414" stroke-width="2" stroke-linecap="round" stroke-linejoin="round"/>
</svg>
