<svg width="72" height="36" viewBox="0 0 72 36" fill="none" xmlns="http://www.w3.org/2000/svg">
<path d="M42.984 9.2H45.624V23.6H49.968V26H42.984V9.2ZM51.234 9.2H55.218C56.578 9.2 57.57 9.52 58.194 10.16C58.818 10.784 59.13 11.752 59.13 13.064V13.736C59.13 14.6 58.986 15.304 58.698 15.848C58.426 16.392 58.002 16.784 57.426 17.024V17.072C58.738 17.52 59.394 18.688 59.394 20.576V22.016C59.394 23.312 59.05 24.304 58.362 24.992C57.69 25.664 56.698 26 55.386 26H51.234V9.2ZM54.906 16.04C55.434 16.04 55.826 15.904 56.082 15.632C56.354 15.36 56.49 14.904 56.49 14.264V13.328C56.49 12.72 56.378 12.28 56.154 12.008C55.946 11.736 55.61 11.6 55.146 11.6H53.874V16.04H54.906ZM55.386 23.6C55.85 23.6 56.194 23.48 56.418 23.24C56.642 22.984 56.754 22.552 56.754 21.944V20.48C56.754 19.712 56.618 19.184 56.346 18.896C56.09 18.592 55.658 18.44 55.05 18.44H53.874V23.6H55.386ZM62.9771 9.2H66.5531L69.2891 26H66.6491L66.1691 22.664V22.712H63.1691L62.6891 26H60.2411L62.9771 9.2ZM65.8571 20.432L64.6811 12.128H64.6331L63.4811 20.432H65.8571Z" fill="#F6F6F6"/>
<path d="M15 25.5H21V7.5H3V25.5H7.5" fill="#F6F6F6"/>
<path d="M15 25.5H21V7.5H3V25.5H7.5" stroke="#F6F6F6" stroke-width="1.5" stroke-linecap="round" stroke-linejoin="round"/>
<path d="M21 25.5H33V20.49C33.0006 19.7018 32.8459 18.9213 32.5448 18.1929C32.2437 17.4645 31.802 16.8026 31.245 16.245L28.5 13.5H21" fill="#F6F6F6"/>
<path d="M21 25.5H33V20.49C33.0006 19.7018 32.8459 18.9213 32.5448 18.1929C32.2437 17.4645 31.802 16.8026 31.245 16.245L28.5 13.5H21" stroke="#F6F6F6" stroke-width="1.5" stroke-linecap="round" stroke-linejoin="round"/>
<path d="M21 25.5H22.5Z" fill="#F6F6F6"/>
<path d="M21 25.5H22.5" stroke="#F6F6F6" stroke-width="1.5" stroke-linecap="round" stroke-linejoin="round"/>
<path d="M11.25 30C13.3211 30 15 28.3211 15 26.25C15 24.1789 13.3211 22.5 11.25 22.5C9.17893 22.5 7.5 24.1789 7.5 26.25C7.5 28.3211 9.17893 30 11.25 30Z" fill="#F6F6F6" stroke="#F6F6F6" stroke-width="1.5" stroke-linecap="round" stroke-linejoin="round"/>
<path d="M26.25 30C28.3211 30 30 28.3211 30 26.25C30 24.1789 28.3211 22.5 26.25 22.5C24.1789 22.5 22.5 24.1789 22.5 26.25C22.5 28.3211 24.1789 30 26.25 30Z" fill="#F6F6F6" stroke="#F6F6F6" stroke-width="1.5" stroke-linecap="round" stroke-linejoin="round"/>
</svg>
